<svg xmlns="http://www.w3.org/2000/svg" width="900" height="590" viewBox="0 0 900 590" role="img" aria-labelledby="title desc">
  <title id="title">Combined GitHub activity for @thibault-delattre</title>
  <desc id="desc">My name is Thibault Delattre I&apos;m a full-stack engineer moving toward applied AI, currently finishing my MSc at EFREI Paris and preparing to apply to a graduate engineering program in South Korea.

At AXA, I work on Secure GPT, the company&apos;s internal LLM. Before that I built automated test infrastructure at JCDecaux for digital billboard systems running in 70+ countries, and shipped web features at Dassault Systèmes. I also spent three months as a research intern at NIT Akita College in Japan, training a computer-vision model to detect manufacturing defects on film capacitors. It was my first experience working in a lab environment.

On the side I build Reawon, an independent product ecosystem: Reafile, a browser-based AI file editor, and Polywon, an AI-powered language learning app. Combined across 2 GitHub accounts. 32 contributions this week, 192 this month, 1117 this year, 4310 total.</desc>
  <defs>
    <clipPath id="glass-clip">
      <rect x="16" y="272" width="868" height="210" rx="18"/>
    </clipPath>
    <linearGradient id="animated-border" x1="16" y1="272" x2="884" y2="482" gradientUnits="userSpaceOnUse">
      <stop offset="0%" stop-color="#58a6ff"/>
      <stop offset="25%" stop-color="#f7fbff"/>
      <stop offset="50%" stop-color="#ff7b72"/>
      <stop offset="75%" stop-color="#f7fbff"/>
      <stop offset="100%" stop-color="#58a6ff"/>
      <animateTransform
        attributeName="gradientTransform"
        type="rotate"
        from="0 450 377"
        to="360 450 377"
        dur="6s"
        repeatCount="indefinite"
      />
    </linearGradient>
    <linearGradient id="glass-fill" x1="0" y1="272" x2="0" y2="482" gradientUnits="userSpaceOnUse">
      <stop offset="0%" stop-color="#ffffff" stop-opacity="0.72"/>
      <stop offset="48%" stop-color="#eef3f8" stop-opacity="0.6"/>
      <stop offset="100%" stop-color="#ffffff" stop-opacity="0.68"/>
    </linearGradient>
    <radialGradient id="ambient-blue" cx="0%" cy="0%" r="105%">
      <stop offset="0%" stop-color="#58a6ff" stop-opacity="0.16"/>
      <stop offset="48%" stop-color="#58a6ff" stop-opacity="0.035"/>
      <stop offset="100%" stop-color="#58a6ff" stop-opacity="0"/>
    </radialGradient>
    <radialGradient id="ambient-red" cx="100%" cy="100%" r="110%">
      <stop offset="0%" stop-color="#ff7b72" stop-opacity="0.12"/>
      <stop offset="52%" stop-color="#ff7b72" stop-opacity="0.025"/>
      <stop offset="100%" stop-color="#ff7b72" stop-opacity="0"/>
    </radialGradient>
    <linearGradient id="glass-highlight" x1="40" y1="276" x2="804" y2="372" gradientUnits="userSpaceOnUse">
      <stop offset="0%" stop-color="#ffffff" stop-opacity="0.72"/>
      <stop offset="45%" stop-color="#ffffff" stop-opacity="0.08"/>
      <stop offset="100%" stop-color="#ffffff" stop-opacity="0"/>
    </linearGradient>
    <linearGradient id="period-fill" x1="184" y1="332" x2="856" y2="364" gradientUnits="userSpaceOnUse">
      <stop offset="0%" stop-color="#f6f8fa" stop-opacity="0.84"/>
      <stop offset="50%" stop-color="#f6f8fa" stop-opacity="0.5"/>
      <stop offset="100%" stop-color="#f6f8fa" stop-opacity="0.76"/>
    </linearGradient>
    <filter id="panel-shadow" x="-12%" y="-32%" width="124%" height="174%">
      <feDropShadow dx="0" dy="10" stdDeviation="14" flood-color="#57606a" flood-opacity="0.15"/>
      <feDropShadow dx="0" dy="2" stdDeviation="3" flood-color="#57606a" flood-opacity="0.08"/>
    </filter>
    <filter id="activity-title-shadow" x="-8%" y="-45%" width="116%" height="190%">
      <feDropShadow dx="0" dy="1" stdDeviation="1.2" flood-color="#000000" flood-opacity="0.42"/>
    </filter>
  </defs>
  <style>
    text { font-family: -apple-system, BlinkMacSystemFont, "Segoe UI", Helvetica, Arial, sans-serif; }
    .introduction { font-size: 22px; font-weight: 600; }
    .about { font-weight: 400; }
    .eyebrow { font-size: 11px; font-weight: 700; letter-spacing: 1.4px; }
    .period { font-size: 10px; font-weight: 700; letter-spacing: 1.1px; }
    .row-label { font-size: 11px; font-weight: 700; letter-spacing: 1px; }
    .value { font-size: 29px; font-weight: 650; }
    .language { font-size: 12px; font-weight: 600; }
    .reveal {
      opacity: 0;
      animation: fade-in 950ms cubic-bezier(0.4, 0, 0.2, 1) both;
      will-change: opacity;
    }
    @keyframes fade-in {
      from { opacity: 0; }
      to { opacity: 1; }
    }
    @media (prefers-reduced-motion: reduce) {
      .reveal { opacity: 1; animation: none; }
    }
  </style>
  <rect width="900" height="590" fill="#ffffff"/>
  <text x="32" y="38" class="introduction reveal" style="animation-delay:0ms" fill="#1f2328">My name is Thibault Delattre</text>
  <text x="32" y="65" class="about" fill="#59636e"><tspan x="32" dy="0" class="reveal" style="animation-delay:90ms" font-size="14px" word-spacing="2.9px">I&apos;m a full-stack engineer moving toward applied AI, currently finishing my MSc at EFREI Paris and preparing to apply to a</tspan><tspan x="32" dy="21" class="reveal" style="animation-delay:180ms" font-size="14px" word-spacing="0px">graduate engineering program in South Korea.</tspan><tspan x="32" dy="33" class="reveal" style="animation-delay:270ms" font-size="14px" word-spacing="1.3px">At AXA, I work on Secure GPT, the company&apos;s internal LLM. Before that I built automated test infrastructure at JCDecaux for</tspan><tspan x="32" dy="21" class="reveal" style="animation-delay:360ms" font-size="14px" word-spacing="0.3px">digital billboard systems running in 70+ countries, and shipped web features at Dassault Systèmes. I also spent three months as a</tspan><tspan x="32" dy="21" class="reveal" style="animation-delay:450ms" font-size="14px" word-spacing="4.3px">research intern at NIT Akita College in Japan, training a computer-vision model to detect manufacturing defects on film</tspan><tspan x="32" dy="21" class="reveal" style="animation-delay:540ms" font-size="14px" word-spacing="0px">capacitors. It was my first experience working in a lab environment.</tspan><tspan x="32" dy="33" class="reveal" style="animation-delay:630ms" font-size="14px" word-spacing="3.7px">On the side I build Reawon, an independent product ecosystem: Reafile, a browser-based AI file editor, and Polywon, an</tspan><tspan x="32" dy="21" class="reveal" style="animation-delay:720ms" font-size="14px" word-spacing="0px">AI-powered language learning app.</tspan></text>

  <g class="glass-panel">
    <g class="reveal" style="animation-delay:950ms">
      <rect x="16" y="272" width="868" height="210" rx="18" fill="#eef3f8" opacity="0.74" filter="url(#panel-shadow)"/>
      <rect x="16" y="272" width="868" height="210" rx="18" fill="url(#glass-fill)"/>
      <g clip-path="url(#glass-clip)" pointer-events="none">
        <rect x="16" y="272" width="868" height="210" fill="url(#ambient-blue)"/>
        <rect x="16" y="272" width="868" height="210" fill="url(#ambient-red)"/>
      </g>
      <rect x="19" y="275" width="862" height="204" rx="15" fill="none" stroke="#ffffff" stroke-opacity="0.36"/>
      <path d="M 40 273.5 H 764" stroke="url(#glass-highlight)" stroke-width="1.5" stroke-linecap="round"/>
      <rect x="17.25" y="273.25" width="865.5" height="207.5" rx="17" fill="none" stroke="url(#animated-border)" stroke-width="2.5"/>
    </g>
    <g class="reveal" style="animation-delay:1080ms">
      <text x="44" y="305" class="eyebrow" fill="#ffffff" filter="url(#activity-title-shadow)">COMBINED GITHUB ACTIVITY</text>
      <line x1="44" y1="320" x2="856" y2="320" stroke="#d8dee4" stroke-opacity="0.82"/>
    </g>
    <g class="reveal" style="animation-delay:1170ms">
      <rect x="184" y="332" width="672" height="32" rx="6" fill="url(#period-fill)" stroke="#ffffff" stroke-opacity="0.5"/>
      <text x="275" y="352" text-anchor="middle" class="period" fill="#59636e">THIS WEEK</text><text x="435" y="352" text-anchor="middle" class="period" fill="#59636e">THIS MONTH</text><text x="595" y="352" text-anchor="middle" class="period" fill="#59636e">THIS YEAR</text><text x="760" y="352" text-anchor="middle" class="period" fill="#59636e">ALL TIME</text>
    </g>
    <g class="reveal" style="animation-delay:1260ms">
      <text x="44" y="390" class="row-label" fill="#59636e">CONTRIBUTIONS</text>
      <text x="275" y="395" text-anchor="middle" class="value" fill="#1f2328">32</text><text x="435" y="395" text-anchor="middle" class="value" fill="#1f2328">192</text><text x="595" y="395" text-anchor="middle" class="value" fill="#1f2328">1,117</text><text x="760" y="395" text-anchor="middle" class="value" fill="#1f2328">4,310</text>
    </g>
    <g class="reveal" style="animation-delay:1350ms">
      <line x1="184" y1="410" x2="856" y2="410" stroke="#d8dee4" stroke-opacity="0.84"/>
      <text x="44" y="443" class="row-label" fill="#59636e">ACTIVE DAYS</text>
      <text x="275" y="448" text-anchor="middle" class="value" fill="#1f2328">2</text><text x="435" y="448" text-anchor="middle" class="value" fill="#1f2328">13</text><text x="595" y="448" text-anchor="middle" class="value" fill="#1f2328">102</text><text x="760" y="448" text-anchor="middle" class="value" fill="#1f2328">364</text>
    </g>
  </g>

  <text x="32" y="519" class="eyebrow reveal" style="animation-delay:1500ms" fill="#59636e">FAVORITE LANGUAGES</text>
  <g class="reveal" style="animation-delay:1590ms">
    <g>
        <svg x="32" y="538" width="18" height="18" viewBox="0 0 24 24" role="img" aria-label="TypeScript logo">
          <title>TypeScript logo</title>
          <path d="M1.125 0C.502 0 0 .502 0 1.125v21.75C0 23.498.502 24 1.125 24h21.75c.623 0 1.125-.502 1.125-1.125V1.125C24 .502 23.498 0 22.875 0zm17.363 9.75c.612 0 1.154.037 1.627.111a6.38 6.38 0 0 1 1.306.34v2.458a3.95 3.95 0 0 0-.643-.361 5.093 5.093 0 0 0-.717-.26 5.453 5.453 0 0 0-1.426-.2c-.3 0-.573.028-.819.086a2.1 2.1 0 0 0-.623.242c-.17.104-.3.229-.393.374a.888.888 0 0 0-.14.49c0 .196.053.373.156.529.104.156.252.304.443.444s.423.276.696.41c.273.135.582.274.926.416.47.197.892.407 1.266.628.374.222.695.473.963.753.268.279.472.598.614.957.142.359.214.776.214 1.253 0 .657-.125 1.21-.373 1.656a3.033 3.033 0 0 1-1.012 1.085 4.38 4.38 0 0 1-1.487.596c-.566.12-1.163.18-1.79.18a9.916 9.916 0 0 1-1.84-.164 5.544 5.544 0 0 1-1.512-.493v-2.63a5.033 5.033 0 0 0 3.237 1.2c.333 0 .624-.03.872-.09.249-.06.456-.144.623-.25.166-.108.29-.234.373-.38a1.023 1.023 0 0 0-.074-1.089 2.12 2.12 0 0 0-.537-.5 5.597 5.597 0 0 0-.807-.444 27.72 27.72 0 0 0-1.007-.436c-.918-.383-1.602-.852-2.053-1.405-.45-.553-.676-1.222-.676-2.005 0-.614.123-1.141.369-1.582.246-.441.58-.804 1.004-1.089a4.494 4.494 0 0 1 1.47-.629 7.536 7.536 0 0 1 1.77-.201zm-15.113.188h9.563v2.166H9.506v9.646H6.789v-9.646H3.375z" fill="#3178C6"/>
        </svg>
        <text x="56" y="551" class="language" fill="#1f2328">TypeScript</text>
      </g><g>
        <svg x="148" y="538" width="18" height="18" viewBox="0 0 24 24" role="img" aria-label="JavaScript logo">
          <title>JavaScript logo</title>
          <path d="M0 0h24v24H0V0zm22.034 18.276c-.175-1.095-.888-2.015-3.003-2.873-.736-.345-1.554-.585-1.797-1.14-.091-.33-.105-.51-.046-.705.15-.646.915-.84 1.515-.66.39.12.75.42.976.9 1.034-.676 1.034-.676 1.755-1.125-.27-.42-.404-.601-.586-.78-.63-.705-1.469-1.065-2.834-1.034l-.705.089c-.676.165-1.32.525-1.71 1.005-1.14 1.291-.811 3.541.569 4.471 1.365 1.02 3.361 1.244 3.616 2.205.24 1.17-.87 1.545-1.966 1.41-.811-.18-1.26-.586-1.755-1.336l-1.83 1.051c.21.48.45.689.81 1.109 1.74 1.756 6.09 1.666 6.871-1.004.029-.09.24-.705.074-1.65l.046.067zm-8.983-7.245h-2.248c0 1.938-.009 3.864-.009 5.805 0 1.232.063 2.363-.138 2.711-.33.689-1.18.601-1.566.48-.396-.196-.597-.466-.83-.855-.063-.105-.11-.196-.127-.196l-1.825 1.125c.305.63.75 1.172 1.324 1.517.855.51 2.004.675 3.207.405.783-.226 1.458-.691 1.811-1.411.51-.93.402-2.07.397-3.346.012-2.054 0-4.109 0-6.179l.004-.056z" fill="#F7DF1E"/>
        </svg>
        <text x="172" y="551" class="language" fill="#1f2328">JavaScript</text>
      </g><g>
        <svg x="264" y="538" width="18" height="18" viewBox="0 0 24 24" role="img" aria-label="Go logo">
          <title>Go logo</title>
          <path d="M1.811 10.231c-.047 0-.058-.023-.035-.059l.246-.315c.023-.035.081-.058.128-.058h4.172c.046 0 .058.035.035.07l-.199.303c-.023.036-.082.07-.117.07zM.047 11.306c-.047 0-.059-.023-.035-.058l.245-.316c.023-.035.082-.058.129-.058h5.328c.047 0 .07.035.058.07l-.093.28c-.012.047-.058.07-.105.07zm2.828 1.075c-.047 0-.059-.035-.035-.07l.163-.292c.023-.035.07-.07.117-.07h2.337c.047 0 .07.035.07.082l-.023.28c0 .047-.047.082-.082.082zm12.129-2.36c-.736.187-1.239.327-1.963.514-.176.046-.187.058-.34-.117-.174-.199-.303-.327-.548-.444-.737-.362-1.45-.257-2.115.175-.795.514-1.204 1.274-1.192 2.22.011.935.654 1.706 1.577 1.835.795.105 1.46-.175 1.987-.77.105-.13.198-.27.315-.434H10.47c-.245 0-.304-.152-.222-.35.152-.362.432-.97.596-1.274a.315.315 0 01.292-.187h4.253c-.023.316-.023.631-.07.947a4.983 4.983 0 01-.958 2.29c-.841 1.11-1.94 1.8-3.33 1.986-1.145.152-2.209-.07-3.143-.77-.865-.655-1.356-1.52-1.484-2.595-.152-1.274.222-2.419.993-3.424.83-1.086 1.928-1.776 3.272-2.02 1.098-.2 2.15-.07 3.096.571.62.41 1.063.97 1.356 1.648.07.105.023.164-.117.2m3.868 6.461c-1.064-.024-2.034-.328-2.852-1.029a3.665 3.665 0 01-1.262-2.255c-.21-1.32.152-2.489.947-3.529.853-1.122 1.881-1.706 3.272-1.95 1.192-.21 2.314-.095 3.33.595.923.63 1.496 1.484 1.648 2.605.198 1.578-.257 2.863-1.344 3.962-.771.783-1.718 1.273-2.805 1.495-.315.06-.63.07-.934.106zm2.78-4.72c-.011-.153-.011-.27-.034-.387-.21-1.157-1.274-1.81-2.384-1.554-1.087.245-1.788.935-2.045 2.033-.21.912.234 1.835 1.075 2.21.643.28 1.285.244 1.905-.07.923-.48 1.425-1.228 1.484-2.233z" fill="#00ADD8"/>
        </svg>
        <text x="288" y="551" class="language" fill="#1f2328">Go</text>
      </g><g>
        <svg x="324" y="538" width="18" height="18" viewBox="0 0 24 24" role="img" aria-label="SCSS logo">
          <title>SCSS logo</title>
          <path d="M12 0c6.627 0 12 5.373 12 12s-5.373 12-12 12S0 18.627 0 12 5.373 0 12 0zM9.615 15.998c.175.645.156 1.248-.024 1.792l-.065.18c-.024.061-.052.12-.078.176-.14.29-.326.56-.555.81-.698.759-1.672 1.047-2.09.805-.45-.262-.226-1.335.584-2.19.871-.918 2.12-1.509 2.12-1.509v-.003l.108-.061zm9.911-10.861c-.542-2.133-4.077-2.834-7.422-1.645-1.989.707-4.144 1.818-5.693 3.267C4.568 8.48 4.275 9.98 4.396 10.607c.427 2.211 3.457 3.657 4.703 4.73v.006c-.367.18-3.056 1.529-3.686 2.925-.675 1.47.105 2.521.615 2.655 1.575.436 3.195-.36 4.065-1.649.84-1.261.766-2.881.404-3.676.496-.135 1.08-.195 1.83-.104 2.101.24 2.521 1.56 2.43 2.1-.09.539-.523.854-.674.944-.15.091-.195.12-.181.181.015.09.091.09.21.075.165-.03 1.096-.45 1.141-1.471.045-1.29-1.186-2.729-3.375-2.7-.9.016-1.471.091-1.875.256-.03-.045-.061-.075-.105-.105-1.35-1.455-3.855-2.475-3.75-4.41.03-.705.285-2.564 4.8-4.814 3.705-1.846 6.661-1.335 7.171-.21.733 1.604-1.576 4.59-5.431 5.024-1.47.165-2.235-.404-2.431-.615-.209-.225-.239-.24-.314-.194-.12.06-.045.255 0 .375.12.3.585.825 1.396 1.095.704.225 2.43.359 4.5-.45 2.324-.899 4.139-3.405 3.614-5.505l.073.067z" fill="#CC6699"/>
        </svg>
        <text x="348" y="551" class="language" fill="#1f2328">SCSS</text>
      </g><g>
        <svg x="398" y="538" width="18" height="18" viewBox="0 0 24 24" role="img" aria-label="HTML logo">
          <title>HTML logo</title>
          <path d="M1.5 0h21l-1.91 21.563L11.977 24l-8.564-2.438L1.5 0zm7.031 9.75l-.232-2.718 10.059.003.23-2.622L5.412 4.41l.698 8.01h9.126l-.326 3.426-2.91.804-2.955-.81-.188-2.11H6.248l.33 4.171L12 19.351l5.379-1.443.744-8.157H8.531z" fill="#E34F26"/>
        </svg>
        <text x="422" y="551" class="language" fill="#1f2328">HTML</text>
      </g>
  </g>
</svg>