<svg xmlns="http://www.w3.org/2000/svg" width="900" height="320" viewBox="0 0 900 320" role="img" aria-labelledby="title desc">
  <title id="title">Thibault Delattre GitHub engineering activity</title>
  <desc id="desc">0 contributions across 0 active days, 0 merged pull requests, 0 code reviews, during the last 90 days</desc>
  <style>
    text { font-family: -apple-system, BlinkMacSystemFont, "Segoe UI", Helvetica, Arial, sans-serif; }
    .eyebrow { font-size: 11px; font-weight: 700; letter-spacing: 1.4px; }
    .name { font-size: 24px; font-weight: 650; }
    .metric-label { font-size: 10px; font-weight: 700; letter-spacing: 1.1px; }
    .metric-value { font-size: 30px; font-weight: 650; }
    .metric-note { font-size: 11px; }
    .section-label { font-size: 10px; font-weight: 700; letter-spacing: 1.1px; }
    .footer { font-size: 11px; }
    .language { font-size: 11px; font-weight: 600; }
  </style>
  <rect x="0.5" y="0.5" width="899" height="319" rx="14" fill="#ffffff" stroke="#d0d7de"/>
  <text x="32" y="34" class="eyebrow" fill="#2f81f7">ENGINEERING PULSE</text>
  <text x="32" y="66" class="name" fill="#1f2328">Thibault Delattre</text>
  <circle cx="661" cy="43" r="4" fill="#1a7f37"/>
  <text x="673" y="47" class="eyebrow" fill="#59636e">PUBLIC DATA · UPDATED JUL 23 2026</text>
  <line x1="32" y1="88" x2="868" y2="88" stroke="#d8dee4"/>
  <g transform="translate(32 0)">
    <text x="0" y="111" class="metric-label" fill="#59636e">CONTRIBUTIONS</text>
    <text x="0" y="148" class="metric-value" fill="#1f2328">0</text>
    <text x="0" y="165" class="metric-note" fill="#818b98">LAST 90 DAYS</text>
  </g>
  <g transform="translate(247 0)">
    <text x="0" y="111" class="metric-label" fill="#59636e">ACTIVE DAYS</text>
    <text x="0" y="148" class="metric-value" fill="#1f2328">0</text>
    <text x="0" y="165" class="metric-note" fill="#818b98">0-DAY BEST STREAK</text>
  </g>
  <g transform="translate(462 0)">
    <text x="0" y="111" class="metric-label" fill="#59636e">MERGED PRS</text>
    <text x="0" y="148" class="metric-value" fill="#1f2328">0</text>
    <text x="0" y="165" class="metric-note" fill="#818b98">0 OPENED</text>
  </g>
  <g transform="translate(677 0)">
    <text x="0" y="111" class="metric-label" fill="#59636e">CODE REVIEWS</text>
    <text x="0" y="148" class="metric-value" fill="#1f2328">0</text>
    <text x="0" y="165" class="metric-note" fill="#818b98">0 REPOS TOUCHED</text>
  </g>
  <line x1="32" y1="178" x2="868" y2="178" stroke="#d8dee4"/>
  <text x="32" y="205" class="section-label" fill="#59636e">WEEKLY CONTRIBUTION SIGNAL</text>
  <line x1="32" y1="270" x2="502" y2="270" stroke="#eaeef2"/>
  <polyline points="32.0,270.0 71.2,270.0 110.3,270.0 149.5,270.0 188.7,270.0 227.8,270.0 267.0,270.0 306.2,270.0 345.3,270.0 384.5,270.0 423.7,270.0 462.8,270.0 502.0,270.0" fill="none" stroke="#2f81f7" stroke-width="2.5" stroke-linecap="round" stroke-linejoin="round"/>
  <circle cx="32.0" cy="270.0" r="2.4" fill="#2f81f7"/><circle cx="71.2" cy="270.0" r="2.4" fill="#2f81f7"/><circle cx="110.3" cy="270.0" r="2.4" fill="#2f81f7"/><circle cx="149.5" cy="270.0" r="2.4" fill="#2f81f7"/><circle cx="188.7" cy="270.0" r="2.4" fill="#2f81f7"/><circle cx="227.8" cy="270.0" r="2.4" fill="#2f81f7"/><circle cx="267.0" cy="270.0" r="2.4" fill="#2f81f7"/><circle cx="306.2" cy="270.0" r="2.4" fill="#2f81f7"/><circle cx="345.3" cy="270.0" r="2.4" fill="#2f81f7"/><circle cx="384.5" cy="270.0" r="2.4" fill="#2f81f7"/><circle cx="423.7" cy="270.0" r="2.4" fill="#2f81f7"/><circle cx="462.8" cy="270.0" r="2.4" fill="#2f81f7"/><circle cx="502.0" cy="270.0" r="2.4" fill="#2f81f7"/>
  <text x="555" y="205" class="section-label" fill="#59636e">LANGUAGE FOOTPRINT</text>
  <text x="555" y="243" class="footer" fill="#818b98">No language data available yet</text>
  <line x1="32" y1="288" x2="868" y2="288" stroke="#d8dee4"/>
  <text x="32" y="308" class="footer" fill="#1a7f37">Momentum 0% vs previous 90 days</text>
  <text x="868" y="308" text-anchor="end" class="footer" fill="#59636e">Public GitHub activity</text>
</svg>